<svg xmlns="http://www.w3.org/2000/svg" viewBox="0 0 200 140" width="200" height="140"><rect width="200" height="35" y="0" rx="12" fill="#ff3333"/><rect width="200" height="70" y="35" fill="#ffffff"/><rect width="200" height="35" y="105" rx="12" fill="#171796"/><g transform="translate(80,45)"><rect width="40" height="40" rx="4" fill="#ffffff" stroke="#171796" stroke-width="2"/><rect width="10" height="10" x="0" y="0" fill="#ff3333"/><rect width="10" height="10" x="20" y="0" fill="#ff3333"/><rect width="10" height="10" x="10" y="10" fill="#ff3333"/><rect width="10" height="10" x="30" y="10" fill="#ff3333"/><rect width="10" height="10" x="0" y="20" fill="#ff3333"/><rect width="10" height="10" x="20" y="20" fill="#ff3333"/><rect width="10" height="10" x="10" y="30" fill="#ff3333"/><rect width="10" height="10" x="30" y="30" fill="#ff3333"/><rect width="10" height="10" x="10" y="0" fill="#ffffff"/><rect width="10" height="10" x="30" y="0" fill="#ffffff"/><rect width="10" height="10" x="0" y="10" fill="#ffffff"/><rect width="10" height="10" x="20" y="10" fill="#ffffff"/><rect width="10" height="10" x="10" y="20" fill="#ffffff"/><rect width="10" height="10" x="30" y="20" fill="#ffffff"/><rect width="10" height="10" x="0" y="30" fill="#ffffff"/><rect width="10" height="10" x="20" y="30" fill="#ffffff"/></g></svg>